<?xml version="1.0" encoding="utf-8"?>
<!-- Generator: Adobe Illustrator 25.4.1, SVG Export Plug-In . SVG Version: 6.00 Build 0)  -->
<svg version="1.1" id="Layer_1" xmlns="http://www.w3.org/2000/svg" xmlns:xlink="http://www.w3.org/1999/xlink" x="0px" y="0px"
	 viewBox="0 0 1720 78" style="enable-background:new 0 0 1720 78;" xml:space="preserve">
<style type="text/css">
	.st0{enable-background:new    ;}
	.st1{fill:#FFFFFF;}
</style>
<g id="Layer_2_00000082327001397313722260000015424002618713803138_">
</g>
<g id="Layer_1_00000130626445821829905830000012789071706323672480_">
	<g class="st0">
		<path class="st1" d="M1.4,6.8V6.1h42.2v6.1H15.6v16.3c0,1,0.7,1.7,1.7,1.7l20.7-0.7v6.1L17.3,35c-1,0-1.7,0.7-1.7,1.7v19.4
			l8.8,5.1v0.7H1.4v-0.7l8.8-5.1V11.9L1.4,6.8z"/>
		<path class="st1" d="M64.6,33.3c5.2-6.3,15.8-10.9,25.2-10.9v7.5h-4.1c-12.8,0-22.1,6.3-22.1,15c0,5.7,4.7,11.4,11.2,13.6l8.2,2.7
			v0.7H49v-0.7l10.2-4.8V30.6l-6.8-7.5v-0.7h11.6v10.9H64.6z"/>
		<path class="st1" d="M139.4,42.2c0,12-8.6,20.7-20.4,20.7c-11.8,0-20.4-8.7-20.4-20.7c0-12,8.6-20.7,20.4-20.7
			C130.8,21.4,139.4,30.1,139.4,42.2z M103.7,42.2c0,8.5,6.5,14.6,15.3,14.6c8.8,0,15.3-6.1,15.3-14.6c0-8.5-6.5-14.6-15.3-14.6
			C110.2,27.5,103.7,33.7,103.7,42.2z"/>
		<path class="st1" d="M147.6,61.9l25.5-33.7h-25.2v-5.8h35.7l-25.5,33.7h28.2v5.8H147.6z"/>
		<path class="st1" d="M199,44.2c1,7.4,7.1,12.6,15.2,12.6c4.8,0,10.6-2.2,13.9-5.1v6.8c-3,2.6-8.8,4.4-13.9,4.4
			c-11.8,0-20.4-8.7-20.4-20.7c0-12,10-20.7,23.8-20.7c9,0,15.6,6.1,15.6,14.6v8.2H199z M222,38.8c3.1-0.2,5.4-2.2,5.4-4.8
			c0-3.7-4-6.5-9.5-6.5c-10.1,0-17.7,5.2-18.9,12.6L222,38.8z"/>
		<path class="st1" d="M264.2,61.2l2-2c3.3-3.3,5.8-9.9,5.8-15.6c0-8.8-4.3-15.3-10.2-15.3c-5.9,0-10.2,6.5-10.2,15.3
			c0,5.7,2.4,12.3,5.8,15.6l2,2v0.7H239v-0.7l8.2-4.8V29.2l-8.2-6.1v-0.7h12.9v6.8h0.7c1.8-4.6,6.5-7.8,11.2-7.8
			c7.3,0,12.6,6.5,12.6,15.3v19.7l8.2,4.8v0.7h-20.4V61.2z"/>
		<path class="st1" d="M377.4,61.9h-40.8v-0.7l17.7-5.1V11.9l-17.7-5.1V6.1h40.8v0.7l-17.7,5.1v44.2l17.7,5.1V61.9z"/>
		<path class="st1" d="M390.7,32c0,8.2,34.3,6.5,34.3,20.1c0,6.3-8.6,10.9-20.4,10.9c-6.2,0-14.1-1.7-19-4.1v-7.1
			c4.9,2.9,13.2,5.1,19.7,5.1c8.5,0,14.6-2,14.6-4.8c0-8.2-34.3-6.5-34.3-20.1c0-6.1,7.4-10.5,17.7-10.5c5.3,0,12.2,1.3,16.3,3.1
			v6.8c-3.8-2.2-10.9-3.7-17-3.7C395.7,27.5,390.7,29.4,390.7,32z"/>
		<path class="st1" d="M463.8,58.5l9.5,2.7v0.7h-43.5v-0.7l18.4-5.1V11.9l-12.2-5.1V6.1h19.7l-1.4,10.2c-1,7.6-1.7,18.3-1.7,25.5
			C452.5,49.6,457.2,56.6,463.8,58.5z"/>
		<path class="st1" d="M510.3,52.4h-0.7c-4.5,6.1-12.6,10.5-19.4,10.5c-6.3,0-10.9-4.4-10.9-10.5c0-9.9,11.2-17,26.5-17
			c8.2,0,4.7-7.8-7.5-7.8c-5,0-11.4,1.3-15,3.1v-6.8c2.9-1.4,8.2-2.4,12.6-2.4c11,0,19,5.8,19,13.9v18.4l6.8,7.5v0.7h-12.6
			L510.3,52.4z M505.9,39.8c-12,0-20.7,5.3-20.7,12.6c0,2.6,2.2,4.4,5.1,4.4c6.5,0,14.2-3.7,18.4-8.8
			C512.4,43.2,511.3,39.8,505.9,39.8z"/>
		<path class="st1" d="M549.8,61.2l2-2c3.3-3.3,5.8-9.9,5.8-15.6c0-8.8-4.3-15.3-10.2-15.3c-5.9,0-10.2,6.5-10.2,15.3
			c0,5.7,2.4,12.3,5.8,15.6l2,2v0.7h-20.4v-0.7l8.2-4.8V29.2l-8.2-6.1v-0.7h12.9v6.8h0.7c1.8-4.6,6.5-7.8,11.2-7.8
			c7.3,0,12.6,6.5,12.6,15.3v19.7l8.2,4.8v0.7h-20.4V61.2z"/>
		<path class="st1" d="M574.6,42.2c0-12,7-20.7,16.7-20.7c3.9,0,8.8,2.7,11.6,6.5c1.2,1.6,2.1,1.2,2-1l-0.7-15.3l-9.5-4.8V6.1h15v49
			l8.2,6.1v0.7h-12.9v-7.8h-0.7c-2.3,5.1-7.8,8.8-12.9,8.8C581.6,62.9,574.6,54.2,574.6,42.2z M579.7,42.2c0,8.5,4.8,14.6,11.6,14.6
			c5.4,0,11-4.7,13.3-11.2c0.9-2.6,0.9-6.1,0-8.4c-2.2-5.6-7.8-9.7-13.3-9.7C584.5,27.5,579.7,33.7,579.7,42.2z"/>
		<path class="st1" d="M698.4,57.1l14.3,4.1v0.7h-44.9v-0.7l17.7-5.1V28.2l-10.9-5.1v-0.7h18.4l-1.4,6.1c-1,4.5-1.7,11.1-1.7,15.6
			C689.9,50.3,693.3,55.7,698.4,57.1z M685.4,5.1c7.9,0,13.6,2,13.6,4.8s-5.7,4.8-13.6,4.8s-13.6-2-13.6-4.8S677.5,5.1,685.4,5.1z"
			/>
		<path class="st1" d="M723.9,32c0,8.2,34.3,6.5,34.3,20.1c0,6.3-8.6,10.9-20.4,10.9c-6.2,0-14.1-1.7-19-4.1v-7.1
			c4.9,2.9,13.2,5.1,19.7,5.1c8.5,0,14.6-2,14.6-4.8c0-8.2-34.3-6.5-34.3-20.1c0-6.1,7.4-10.5,17.7-10.5c5.3,0,12.2,1.3,16.3,3.1
			v6.8c-3.8-2.2-10.9-3.7-17-3.7C728.9,27.5,723.9,29.4,723.9,32z"/>
		<path class="st1" d="M843.5,52.4h-0.7c-4.5,6.1-12.6,10.5-19.4,10.5c-6.3,0-10.9-4.4-10.9-10.5c0-9.9,11.2-17,26.5-17
			c8.2,0,4.7-7.8-7.5-7.8c-5,0-11.4,1.3-15,3.1v-6.8c2.9-1.4,8.2-2.4,12.6-2.4c11,0,19,5.8,19,13.9v18.4l6.8,7.5v0.7h-12.6
			L843.5,52.4z M839.1,39.8c-12,0-20.7,5.3-20.7,12.6c0,2.6,2.2,4.4,5.1,4.4c6.5,0,14.2-3.7,18.4-8.8
			C845.6,43.2,844.5,39.8,839.1,39.8z"/>
		<path class="st1" d="M937,57.1c-2,0-4.1,5.8-12.2,5.8c-9.9,0-17-8.7-17-20.7c0-12,7.3-20.7,17.3-20.7c5.4,0,10.9,3.7,12.9,8.8h0.7
			v-7.8h11.6v0.7l-6.8,7.5v28.2c0,11-8.2,19-19.4,19c-4.1,0-8.6-1.4-10.9-3.4v-6.8c2.7,2.4,7.2,4.1,10.9,4.1
			c8.5,0,14.6-5.4,14.6-12.9C938.7,57.9,938,57.1,937,57.1z M938.4,47.1c0.8-2.3,0.8-5.8,0-8.4c-2.2-6.5-7.8-11.2-13.3-11.2
			c-7.1,0-12.2,6.1-12.2,14.6c0,8.5,5,14.6,11.9,14.6C930.5,56.8,936.2,52.7,938.4,47.1z"/>
		<path class="st1" d="M969,33.3c5.2-6.3,15.8-10.9,25.2-10.9v7.5h-4.1c-12.8,0-22.1,6.3-22.1,15c0,5.7,4.7,11.4,11.2,13.6l8.2,2.7
			v0.7h-34v-0.7l10.2-4.8V30.6l-6.8-7.5v-0.7h11.6v10.9H969z"/>
		<path class="st1" d="M1043.8,42.2c0,12-8.6,20.7-20.4,20.7s-20.4-8.7-20.4-20.7c0-12,8.6-20.7,20.4-20.7S1043.8,30.1,1043.8,42.2z
			 M1008.1,42.2c0,8.5,6.5,14.6,15.3,14.6s15.3-6.1,15.3-14.6c0-8.5-6.5-14.6-15.3-14.6S1008.1,33.7,1008.1,42.2z"/>
		<path class="st1" d="M1078.1,62.9h-0.7l-6.1-16.3h-0.7l-6.1,16.3h-0.7l-15.3-39.8v-0.7h9.5l0.3,5.4c0.7,11.8,3.3,20.4,6.1,20.4
			c3.1,0,4.8-8.6,4.1-20.4l-0.3-5.4h5.4l-0.3,5.4c-0.7,11.8,1,20.4,4.1,20.4c2.9,0,5.4-8.6,6.1-20.4l0.3-5.4h9.5v0.7L1078.1,62.9z"
			/>
		<path class="st1" d="M1126.8,57.1l14.3,4.1v0.7h-44.9v-0.7l17.7-5.1V28.2l-10.9-5.1v-0.7h18.4l-1.4,6.1c-1,4.5-1.7,11.1-1.7,15.6
			C1118.3,50.3,1121.7,55.7,1126.8,57.1z M1113.8,5.1c7.9,0,13.6,2,13.6,4.8s-5.7,4.8-13.6,4.8s-13.6-2-13.6-4.8
			S1105.9,5.1,1113.8,5.1z"/>
		<path class="st1" d="M1168.6,61.2l2-2c3.3-3.3,5.8-9.9,5.8-15.6c0-8.8-4.3-15.3-10.2-15.3c-5.9,0-10.2,6.5-10.2,15.3
			c0,5.7,2.4,12.3,5.8,15.6l2,2v0.7h-20.4v-0.7l8.2-4.8V29.2l-8.2-6.1v-0.7h12.9v6.8h0.7c1.8-4.6,6.5-7.8,11.2-7.8
			c7.3,0,12.6,6.5,12.6,15.3v19.7l8.2,4.8v0.7h-20.4V61.2z"/>
		<path class="st1" d="M1222.6,57.1c-2,0-4.1,5.8-12.2,5.8c-9.9,0-17-8.7-17-20.7c0-12,7.3-20.7,17.3-20.7c5.4,0,10.9,3.7,12.9,8.8
			h0.7v-7.8h11.6v0.7l-6.8,7.5v28.2c0,11-8.2,19-19.4,19c-4.1,0-8.6-1.4-10.9-3.4v-6.8c2.7,2.4,7.2,4.1,10.9,4.1
			c8.5,0,14.6-5.4,14.6-12.9C1224.3,57.9,1223.6,57.1,1222.6,57.1z M1224,47.1c0.8-2.3,0.8-5.8,0-8.4c-2.2-6.5-7.8-11.2-13.3-11.2
			c-7.1,0-12.2,6.1-12.2,14.6c0,8.5,5,14.6,11.9,14.6C1216.1,56.8,1221.8,52.7,1224,47.1z"/>
		<path class="st1" d="M1319.5,52.4h-0.7c-4.5,6.1-12.6,10.5-19.4,10.5c-6.3,0-10.9-4.4-10.9-10.5c0-9.9,11.2-17,26.5-17
			c8.2,0,4.7-7.8-7.5-7.8c-5,0-11.4,1.3-15,3.1v-6.8c2.9-1.4,8.2-2.4,12.6-2.4c11,0,19,5.8,19,13.9v18.4l6.8,7.5v0.7h-12.6
			L1319.5,52.4z M1315.1,39.8c-12,0-20.7,5.3-20.7,12.6c0,2.6,2.2,4.4,5.1,4.4c6.5,0,14.2-3.7,18.4-8.8
			C1321.6,43.2,1320.5,39.8,1315.1,39.8z"/>
		<path class="st1" d="M1349.8,33.3c5.2-6.3,15.8-10.9,25.2-10.9v7.5h-4.1c-12.8,0-22.1,6.3-22.1,15c0,5.7,4.7,11.4,11.2,13.6
			l8.2,2.7v0.7h-34v-0.7l10.2-4.8V30.6l-6.8-7.5v-0.7h11.6v10.9H1349.8z"/>
		<path class="st1" d="M1421.9,50.7v6.8c-3.7,3.1-10.3,5.4-15.6,5.4c-13,0-22.4-8.3-22.4-19.7c0-12.6,10.5-21.8,25.2-21.8
			c5,0,10.4,1.6,12.9,3.7V32c-2.7-2.6-8.1-4.4-12.9-4.4c-11.8,0-20.2,6.6-20.1,15.6c0.1,7.9,7.3,13.6,17.3,13.6
			C1411.5,56.8,1418.1,54.2,1421.9,50.7z"/>
		<path class="st1" d="M1454.2,61.2l2-2c3.3-3.3,5.8-9.9,5.8-15.6c0-8.8-4.3-15.3-10.2-15.3c-5.9,0-10.2,6.5-10.2,15.3
			c0,5.7,2.4,12.3,5.8,15.6l2,2v0.7H1429v-0.7l8.2-4.8V12.9l-8.2-6.1V6.1h13.6l-0.7,23.1h0.7c1.8-4.6,6.5-7.8,11.2-7.8
			c7.3,0,12.6,6.5,12.6,15.3v19.7l8.2,4.8v0.7h-20.4V61.2z"/>
		<path class="st1" d="M1507.6,57.1l14.3,4.1v0.7H1477v-0.7l17.7-5.1V28.2l-10.9-5.1v-0.7h18.4l-1.4,6.1c-1,4.5-1.7,11.1-1.7,15.6
			C1499.1,50.3,1502.5,55.7,1507.6,57.1z M1494.6,5.1c7.9,0,13.6,2,13.6,4.8s-5.7,4.8-13.6,4.8s-13.6-2-13.6-4.8
			S1486.7,5.1,1494.6,5.1z"/>
		<path class="st1" d="M1547.3,62.9h-0.7l-22.8-39.8v-0.7h9.2l2.7,9.9c2.5,9.2,7.3,16,11.2,16c3.9,0,8.7-6.7,11.2-16l2.7-9.9h9.2
			v0.7L1547.3,62.9z"/>
		<path class="st1" d="M1579.4,44.2c1,7.4,7.1,12.6,15.2,12.6c4.8,0,10.6-2.2,13.9-5.1v6.8c-3,2.6-8.8,4.4-13.9,4.4
			c-11.8,0-20.4-8.7-20.4-20.7c0-12,10-20.7,23.8-20.7c9,0,15.6,6.1,15.6,14.6v8.2H1579.4z M1602.4,38.8c3.1-0.2,5.4-2.2,5.4-4.8
			c0-3.7-4-6.5-9.5-6.5c-10.1,0-17.7,5.2-18.9,12.6L1602.4,38.8z"/>
		<path class="st1" d="M1638.8,53.4c7.9,0,13.6,2,13.6,4.8s-5.7,4.8-13.6,4.8c-7.9,0-13.6-2-13.6-4.8S1630.9,53.4,1638.8,53.4z"/>
	</g>
</g>
</svg>
