<?xml version="1.0" encoding="utf-8"?>
<!-- Generator: Adobe Illustrator 25.4.1, SVG Export Plug-In . SVG Version: 6.00 Build 0)  -->
<svg version="1.1" id="Layer_1" xmlns="http://www.w3.org/2000/svg" xmlns:xlink="http://www.w3.org/1999/xlink" x="0px" y="0px"
	 viewBox="0 0 2725 78" style="enable-background:new 0 0 2725 78;" xml:space="preserve">
<style type="text/css">
	.st0{enable-background:new    ;}
	.st1{fill:#FFFFFF;}
</style>
<g id="Layer_2_00000082327001397313722260000015424002618713803138_">
</g>
<g id="Layer_1_00000175300811517291664610000012290759947249157251_">
	<g class="st0">
		<path class="st1" d="M1.4,6.8V6.1h42.2v6.1H15.6v16.3c0,1,0.7,1.7,1.7,1.7l20.7-0.7v6.1L17.3,35c-1,0-1.7,0.7-1.7,1.7v19.4
			l8.8,5.1v0.7H1.4v-0.7l8.8-5.1V11.9L1.4,6.8z"/>
		<path class="st1" d="M64.6,33.3c5.2-6.3,15.8-10.9,25.2-10.9v7.5h-4.1c-12.8,0-22.1,6.3-22.1,15c0,5.7,4.7,11.4,11.2,13.6l8.2,2.7
			v0.7H49v-0.7l10.2-4.8V30.6l-6.8-7.5v-0.7h11.6v10.9H64.6z"/>
		<path class="st1" d="M139.4,42.2c0,12-8.6,20.7-20.4,20.7c-11.8,0-20.4-8.7-20.4-20.7c0-12,8.6-20.7,20.4-20.7
			C130.8,21.4,139.4,30.1,139.4,42.2z M103.7,42.2c0,8.5,6.5,14.6,15.3,14.6c8.8,0,15.3-6.1,15.3-14.6c0-8.5-6.5-14.6-15.3-14.6
			C110.2,27.5,103.7,33.7,103.7,42.2z"/>
		<path class="st1" d="M147.6,61.9l25.5-33.7h-25.2v-5.8h35.7l-25.5,33.7h28.2v5.8H147.6z"/>
		<path class="st1" d="M199,44.2c1,7.4,7.1,12.6,15.2,12.6c4.8,0,10.6-2.2,13.9-5.1v6.8c-3,2.6-8.8,4.4-13.9,4.4
			c-11.8,0-20.4-8.7-20.4-20.7c0-12,10-20.7,23.8-20.7c9,0,15.6,6.1,15.6,14.6v8.2H199z M222,38.8c3.1-0.2,5.4-2.2,5.4-4.8
			c0-3.7-4-6.5-9.5-6.5c-10.1,0-17.7,5.2-18.9,12.6L222,38.8z"/>
		<path class="st1" d="M264.2,61.2l2-2c3.3-3.3,5.8-9.9,5.8-15.6c0-8.8-4.3-15.3-10.2-15.3c-5.9,0-10.2,6.5-10.2,15.3
			c0,5.7,2.4,12.3,5.8,15.6l2,2v0.7H239v-0.7l8.2-4.8V29.2l-8.2-6.1v-0.7h12.9v6.8h0.7c1.8-4.6,6.5-7.8,11.2-7.8
			c7.3,0,12.6,6.5,12.6,15.3v19.7l8.2,4.8v0.7h-20.4V61.2z"/>
		<path class="st1" d="M377.4,61.9h-40.8v-0.7l17.7-5.1V11.9l-17.7-5.1V6.1h40.8v0.7l-17.7,5.1v44.2l17.7,5.1V61.9z"/>
		<path class="st1" d="M390.7,32c0,8.2,34.3,6.5,34.3,20.1c0,6.3-8.6,10.9-20.4,10.9c-6.2,0-14.1-1.7-19-4.1v-7.1
			c4.9,2.9,13.2,5.1,19.7,5.1c8.5,0,14.6-2,14.6-4.8c0-8.2-34.3-6.5-34.3-20.1c0-6.1,7.4-10.5,17.7-10.5c5.3,0,12.2,1.3,16.3,3.1
			v6.8c-3.8-2.2-10.9-3.7-17-3.7C395.7,27.5,390.7,29.4,390.7,32z"/>
		<path class="st1" d="M463.8,58.5l9.5,2.7v0.7h-43.5v-0.7l18.4-5.1V11.9l-12.2-5.1V6.1h19.7l-1.4,10.2c-1,7.6-1.7,18.3-1.7,25.5
			C452.5,49.6,457.2,56.6,463.8,58.5z"/>
		<path class="st1" d="M510.3,52.4h-0.7c-4.5,6.1-12.6,10.5-19.4,10.5c-6.3,0-10.9-4.4-10.9-10.5c0-9.9,11.2-17,26.5-17
			c8.2,0,4.7-7.8-7.5-7.8c-5,0-11.4,1.3-15,3.1v-6.8c2.9-1.4,8.2-2.4,12.6-2.4c11,0,19,5.8,19,13.9v18.4l6.8,7.5v0.7h-12.6
			L510.3,52.4z M505.9,39.8c-12,0-20.7,5.3-20.7,12.6c0,2.6,2.2,4.4,5.1,4.4c6.5,0,14.2-3.7,18.4-8.8
			C512.4,43.2,511.3,39.8,505.9,39.8z"/>
		<path class="st1" d="M549.8,61.2l2-2c3.3-3.3,5.8-9.9,5.8-15.6c0-8.8-4.3-15.3-10.2-15.3c-5.9,0-10.2,6.5-10.2,15.3
			c0,5.7,2.4,12.3,5.8,15.6l2,2v0.7h-20.4v-0.7l8.2-4.8V29.2l-8.2-6.1v-0.7h12.9v6.8h0.7c1.8-4.6,6.5-7.8,11.2-7.8
			c7.3,0,12.6,6.5,12.6,15.3v19.7l8.2,4.8v0.7h-20.4V61.2z"/>
		<path class="st1" d="M574.6,42.2c0-12,7-20.7,16.7-20.7c3.9,0,8.8,2.7,11.6,6.5c1.2,1.6,2.1,1.2,2-1l-0.7-15.3l-9.5-4.8V6.1h15v49
			l8.2,6.1v0.7h-12.9v-7.8h-0.7c-2.3,5.1-7.8,8.8-12.9,8.8C581.6,62.9,574.6,54.2,574.6,42.2z M579.7,42.2c0,8.5,4.8,14.6,11.6,14.6
			c5.4,0,11-4.7,13.3-11.2c0.9-2.6,0.9-6.1,0-8.4c-2.2-5.6-7.8-9.7-13.3-9.7C584.5,27.5,579.7,33.7,579.7,42.2z"/>
		<path class="st1" d="M699,57.1c-2,0-4.1,5.8-12.2,5.8c-9.9,0-17-8.7-17-20.7c0-12,7.3-20.7,17.3-20.7c5.4,0,10.9,3.7,12.9,8.8h0.7
			v-7.8h11.6v0.7l-6.8,7.5v28.2c0,11-8.2,19-19.4,19c-4.1,0-8.6-1.4-10.9-3.4v-6.8c2.7,2.4,7.2,4.1,10.9,4.1
			c8.5,0,14.6-5.4,14.6-12.9C700.7,57.9,700,57.1,699,57.1z M700.4,47.1c0.8-2.3,0.8-5.8,0-8.4c-2.2-6.5-7.8-11.2-13.3-11.2
			c-7.1,0-12.2,6.1-12.2,14.6c0,8.5,5,14.6,11.9,14.6C692.5,56.8,698.2,52.7,700.4,47.1z"/>
		<path class="st1" d="M748.3,52.4h-0.7c-4.5,6.1-12.6,10.5-19.4,10.5c-6.3,0-10.9-4.4-10.9-10.5c0-9.9,11.2-17,26.5-17
			c8.2,0,4.7-7.8-7.5-7.8c-5,0-11.4,1.3-15,3.1v-6.8c2.9-1.4,8.2-2.4,12.6-2.4c11,0,19,5.8,19,13.9v18.4l6.8,7.5v0.7h-12.6
			L748.3,52.4z M743.9,39.8c-12,0-20.7,5.3-20.7,12.6c0,2.6,2.2,4.4,5.1,4.4c6.5,0,14.2-3.7,18.4-8.8
			C750.4,43.2,749.3,39.8,743.9,39.8z"/>
		<path class="st1" d="M804.8,49.3v7.1c-3.9,3.7-10.7,6.5-16.3,6.5c-8.7,0-15-6.1-15-14.6V27.9h-11.9v-0.7l20.7-12.9v8.2h22.4v5.4
			h-20.4c-2.4,0-4.1,1.7-4.1,4.1c0,7.3-2.4,10.7-2.4,16.3c0,4.9,4.4,8.5,10.5,8.5C793.3,56.8,800.1,53.7,804.8,49.3z"/>
		<path class="st1" d="M835.4,61.2l2-2c3.3-3.3,5.8-9.9,5.8-15.6c0-8.8-4.3-15.3-10.2-15.3c-5.9,0-10.2,6.5-10.2,15.3
			c0,5.7,2.4,12.3,5.8,15.6l2,2v0.7h-20.4v-0.7l8.2-4.8V12.9l-8.2-6.1V6.1h13.6l-0.7,23.1h0.7c1.8-4.6,6.5-7.8,11.2-7.8
			c7.3,0,12.6,6.5,12.6,15.3v19.7l8.2,4.8v0.7h-20.4V61.2z"/>
		<path class="st1" d="M865.4,44.2c1,7.4,7.1,12.6,15.2,12.6c4.8,0,10.6-2.2,13.9-5.1v6.8c-3,2.6-8.8,4.4-13.9,4.4
			c-11.8,0-20.4-8.7-20.4-20.7c0-12,10-20.7,23.8-20.7c9,0,15.6,6.1,15.6,14.6v8.2H865.4z M888.4,38.8c3.1-0.2,5.4-2.2,5.4-4.8
			c0-3.7-4-6.5-9.5-6.5c-10.1,0-17.7,5.2-18.9,12.6L888.4,38.8z"/>
		<path class="st1" d="M921.4,33.3c5.2-6.3,15.8-10.9,25.2-10.9v7.5h-4.1c-12.8,0-22.1,6.3-22.1,15c0,5.7,4.7,11.4,11.2,13.6
			l8.2,2.7v0.7h-34v-0.7l10.2-4.8V30.6l-6.8-7.5v-0.7h11.6v10.9H921.4z"/>
		<path class="st1" d="M961.9,32c0,8.2,34.3,6.5,34.3,20.1c0,6.3-8.6,10.9-20.4,10.9c-6.2,0-14.1-1.7-19-4.1v-7.1
			c4.9,2.9,13.2,5.1,19.7,5.1c8.5,0,14.6-2,14.6-4.8c0-8.2-34.3-6.5-34.3-20.1c0-6.1,7.4-10.5,17.7-10.5c5.3,0,12.2,1.3,16.3,3.1
			v6.8c-3.8-2.2-10.9-3.7-17-3.7C966.9,27.5,961.9,29.4,961.9,32z"/>
		<path class="st1" d="M1079.2,57.1l14.3,4.1v0.7h-44.9v-0.7l17.7-5.1V28.2l-10.9-5.1v-0.7h18.4l-1.4,6.1c-1,4.5-1.7,11.1-1.7,15.6
			C1070.7,50.3,1074.1,55.7,1079.2,57.1z M1066.2,5.1c7.9,0,13.6,2,13.6,4.8s-5.7,4.8-13.6,4.8s-13.6-2-13.6-4.8
			S1058.3,5.1,1066.2,5.1z"/>
		<path class="st1" d="M1126.8,58.1c1.6-3.6,2.7-9.8,2.7-14.6c0-8.5-1.8-14.6-4.4-14.6s-4.4,6.1-4.4,14.6c0,5.1,0.5,11.3,1.4,14.6
			l0.7,3.1v0.7h-8.2v-0.7l0.7-3.1c0.8-3.1,1.4-9.2,1.4-14.6c0-8.5-1.8-14.6-4.4-14.6c-2.6,0-4.4,6.1-4.4,14.6
			c0,4.9,1.2,11.1,2.7,14.6l1.4,3.1v0.7h-16v-0.7l7.8-4.8V29.2l-6.8-6.1v-0.7h10.2v6.1h0.7c1-4.1,3.9-7.1,6.8-7.1
			c2.6,0,4.8,3,5.3,7.1h0.7c1.4-4.1,4.3-7.1,6.9-7.1c3.5,0,6.1,5,6.1,11.9v23.1l7.8,4.8v0.7h-16v-0.7L1126.8,58.1z"/>
		<path class="st1" d="M1186.6,42.2c0,12-7,20.7-16.7,20.7c-3.7,0-8.6-2.4-11.6-5.8c-1.2-1.4-2-1-2,1v13.3l9.2,4.8v0.7h-23.1v-0.7
			l9.2-4.8V29.2l-8.2-6.1v-0.7h12.9v8.2h0.7c2.4-5.3,7.8-9.2,12.9-9.2C1179.6,21.4,1186.6,30.1,1186.6,42.2z M1181.5,42.2
			c0-8.5-4.8-14.6-11.6-14.6c-5.4,0-11,4.7-13.3,11.2c-0.9,2.6-0.9,6.1,0,8.4c2.2,5.6,7.8,9.7,13.3,9.7
			C1176.7,56.8,1181.5,50.7,1181.5,42.2z"/>
		<path class="st1" d="M1207,33.3c5.2-6.3,15.8-10.9,25.2-10.9v7.5h-4.1c-12.8,0-22.1,6.3-22.1,15c0,5.7,4.7,11.4,11.2,13.6l8.2,2.7
			v0.7h-34v-0.7l10.2-4.8V30.6l-6.8-7.5v-0.7h11.6v10.9H1207z"/>
		<path class="st1" d="M1246.2,44.2c1,7.4,7.1,12.6,15.2,12.6c4.8,0,10.6-2.2,13.9-5.1v6.8c-3,2.6-8.8,4.4-13.9,4.4
			c-11.8,0-20.4-8.7-20.4-20.7c0-12,10-20.7,23.8-20.7c9,0,15.6,6.1,15.6,14.6v8.2H1246.2z M1269.2,38.8c3.1-0.2,5.4-2.2,5.4-4.8
			c0-3.7-4-6.5-9.5-6.5c-10.1,0-17.7,5.2-18.9,12.6L1269.2,38.8z"/>
		<path class="st1" d="M1295.1,32c0,8.2,34.3,6.5,34.3,20.1c0,6.3-8.6,10.9-20.4,10.9c-6.2,0-14.1-1.7-19-4.1v-7.1
			c4.9,2.9,13.2,5.1,19.7,5.1c8.5,0,14.6-2,14.6-4.8c0-8.2-34.3-6.5-34.3-20.1c0-6.1,7.4-10.5,17.7-10.5c5.3,0,12.2,1.3,16.3,3.1
			v6.8c-3.8-2.2-10.9-3.7-17-3.7C1300.1,27.5,1295.1,29.4,1295.1,32z"/>
		<path class="st1" d="M1342.7,32c0,8.2,34.3,6.5,34.3,20.1c0,6.3-8.6,10.9-20.4,10.9c-6.2,0-14.1-1.7-19-4.1v-7.1
			c4.9,2.9,13.2,5.1,19.7,5.1c8.5,0,14.6-2,14.6-4.8c0-8.2-34.3-6.5-34.3-20.1c0-6.1,7.4-10.5,17.7-10.5c5.3,0,12.2,1.3,16.3,3.1
			v6.8c-3.8-2.2-10.9-3.7-17-3.7C1347.7,27.5,1342.7,29.4,1342.7,32z"/>
		<path class="st1" d="M1412.4,57.1l14.3,4.1v0.7h-44.9v-0.7l17.7-5.1V28.2l-10.9-5.1v-0.7h18.4l-1.4,6.1c-1,4.5-1.7,11.1-1.7,15.6
			C1403.9,50.3,1407.3,55.7,1412.4,57.1z M1399.4,5.1c7.9,0,13.6,2,13.6,4.8s-5.7,4.8-13.6,4.8s-13.6-2-13.6-4.8
			S1391.5,5.1,1399.4,5.1z"/>
		<path class="st1" d="M1452.1,62.9h-0.7l-22.8-39.8v-0.7h9.2l2.7,9.9c2.5,9.2,7.3,16,11.2,16c3.9,0,8.7-6.7,11.2-16l2.7-9.9h9.2
			v0.7L1452.1,62.9z"/>
		<path class="st1" d="M1484.2,44.2c1,7.4,7.1,12.6,15.2,12.6c4.8,0,10.6-2.2,13.9-5.1v6.8c-3,2.6-8.8,4.4-13.9,4.4
			c-11.8,0-20.4-8.7-20.4-20.7c0-12,10-20.7,23.8-20.7c9,0,15.6,6.1,15.6,14.6v8.2H1484.2z M1507.2,38.8c3.1-0.2,5.4-2.2,5.4-4.8
			c0-3.7-4-6.5-9.5-6.5c-10.1,0-17.7,5.2-18.9,12.6L1507.2,38.8z"/>
		<path class="st1" d="M1612.6,58.5l5.1,2.7v0.7H1596v-0.7l6.8-4.8V33h-16c-1.6,0-2.8,1.3-2.7,3.1l0.7,13.3
			c0.2,4.4,2.9,8.8,6.5,10.5l2.7,1.4v0.7h-22.1v-0.7l8.2-4.8V33h-8.2v-0.7l5.4-3.4c1.6-1,2.7-3.3,2.7-5.4v-3.1
			c0-8.8,5.2-15.3,12.2-15.3c1,0,2.4,0.3,3.4,0.7v9.5c-1-0.8-2.7-1.4-4.1-1.4c-4.6,0-7.8,3.1-7.8,7.5c0,3.7,2.4,6.5,5.8,6.5h20.4
			l-1.4,5.4c-1,4.6-1.7,10-1.7,12.9C1606.8,51.5,1609.3,56.6,1612.6,58.5z M1600.7,12.6c0-4.4,3.4-7.5,8.2-7.5s8.2,3.1,8.2,7.5
			s-3.4,7.5-8.2,7.5S1600.7,16.9,1600.7,12.6z"/>
		<path class="st1" d="M1644.6,61.2l2-2c3.3-3.3,5.8-9.9,5.8-15.6c0-8.8-4.3-15.3-10.2-15.3c-5.9,0-10.2,6.5-10.2,15.3
			c0,5.7,2.4,12.3,5.8,15.6l2,2v0.7h-20.4v-0.7l8.2-4.8V29.2l-8.2-6.1v-0.7h12.9v6.8h0.7c1.8-4.6,6.5-7.8,11.2-7.8
			c7.3,0,12.6,6.5,12.6,15.3v19.7l8.2,4.8v0.7h-20.4V61.2z"/>
		<path class="st1" d="M1669.4,42.2c0-12,7-20.7,16.7-20.7c3.9,0,8.8,2.7,11.6,6.5c1.2,1.6,2.1,1.2,2-1l-0.7-15.3l-9.5-4.8V6.1h15
			v49l8.2,6.1v0.7h-12.9v-7.8h-0.7c-2.3,5.1-7.8,8.8-12.9,8.8C1676.4,62.9,1669.4,54.2,1669.4,42.2z M1674.5,42.2
			c0,8.5,4.8,14.6,11.6,14.6c5.4,0,11-4.7,13.3-11.2c0.9-2.6,0.9-6.1,0-8.4c-2.2-5.6-7.8-9.7-13.3-9.7
			C1679.3,27.5,1674.5,33.7,1674.5,42.2z"/>
		<path class="st1" d="M1745.6,57.1l14.3,4.1v0.7H1715v-0.7l17.7-5.1V28.2l-10.9-5.1v-0.7h18.4l-1.4,6.1c-1,4.5-1.7,11.1-1.7,15.6
			C1737.1,50.3,1740.5,55.7,1745.6,57.1z M1732.6,5.1c7.9,0,13.6,2,13.6,4.8s-5.7,4.8-13.6,4.8s-13.6-2-13.6-4.8
			S1724.7,5.1,1732.6,5.1z"/>
		<path class="st1" d="M1787.4,61.2l2-2c3.3-3.3,5.8-9.9,5.8-15.6c0-8.8-4.3-15.3-10.2-15.3c-5.9,0-10.2,6.5-10.2,15.3
			c0,5.7,2.4,12.3,5.8,15.6l2,2v0.7h-20.4v-0.7l8.2-4.8V29.2l-8.2-6.1v-0.7h12.9v6.8h0.7c1.8-4.6,6.5-7.8,11.2-7.8
			c7.3,0,12.6,6.5,12.6,15.3v19.7l8.2,4.8v0.7h-20.4V61.2z"/>
		<path class="st1" d="M1841.4,57.1c-2,0-4.1,5.8-12.2,5.8c-9.9,0-17-8.7-17-20.7c0-12,7.3-20.7,17.3-20.7c5.4,0,10.9,3.7,12.9,8.8
			h0.7v-7.8h11.6v0.7l-6.8,7.5v28.2c0,11-8.2,19-19.4,19c-4.1,0-8.6-1.4-10.9-3.4v-6.8c2.7,2.4,7.2,4.1,10.9,4.1
			c8.5,0,14.6-5.4,14.6-12.9C1843.1,57.9,1842.4,57.1,1841.4,57.1z M1842.8,47.1c0.8-2.3,0.8-5.8,0-8.4c-2.2-6.5-7.8-11.2-13.3-11.2
			c-7.1,0-12.2,6.1-12.2,14.6c0,8.5,5,14.6,11.9,14.6C1834.9,56.8,1840.6,52.7,1842.8,47.1z"/>
		<path class="st1" d="M1866.3,32c0,8.2,34.3,6.5,34.3,20.1c0,6.3-8.6,10.9-20.4,10.9c-6.2,0-14.1-1.7-19-4.1v-7.1
			c4.9,2.9,13.2,5.1,19.7,5.1c8.5,0,14.6-2,14.6-4.8c0-8.2-34.3-6.5-34.3-20.1c0-6.1,7.4-10.5,17.7-10.5c5.3,0,12.2,1.3,16.3,3.1
			v6.8c-3.8-2.2-10.9-3.7-17-3.7C1871.3,27.5,1866.3,29.4,1866.3,32z"/>
		<path class="st1" d="M1970.6,19c0,2,1.4,3.4,3.4,3.4h21.8v5.4H1974c-2,0-3.5,1.4-3.4,3.4l0.7,14.6c0.3,5.4,4.1,10.4,9.2,11.9
			l11.2,3.4v0.7h-38.1v-0.7l12.2-4.8V27.9h-12.2v-0.7l8.8-3.4c2-0.7,3.4-2.7,3.4-4.8v-0.7c0-7.7,8.2-13.3,19.4-13.3
			c3.9,0,8.3,0.7,10.5,1.7v7.1c-2.7-1.4-8-2.4-12.6-2.4C1975.9,11.6,1970.6,14.7,1970.6,19z"/>
		<path class="st1" d="M2016.2,33.3c5.2-6.3,15.8-10.9,25.2-10.9v7.5h-4.1c-12.8,0-22.1,6.3-22.1,15c0,5.7,4.7,11.4,11.2,13.6
			l8.2,2.7v0.7h-34v-0.7l10.2-4.8V30.6l-6.8-7.5v-0.7h11.6v10.9H2016.2z"/>
		<path class="st1" d="M2091,42.2c0,12-8.6,20.7-20.4,20.7c-11.8,0-20.4-8.7-20.4-20.7c0-12,8.6-20.7,20.4-20.7
			C2082.4,21.4,2091,30.1,2091,42.2z M2055.3,42.2c0,8.5,6.5,14.6,15.3,14.6c8.8,0,15.3-6.1,15.3-14.6c0-8.5-6.5-14.6-15.3-14.6
			C2061.8,27.5,2055.3,33.7,2055.3,42.2z"/>
		<path class="st1" d="M2099.2,61.9l25.5-33.7h-25.2v-5.8h35.7l-25.5,33.7h28.2v5.8H2099.2z"/>
		<path class="st1" d="M2150.6,44.2c1,7.4,7.1,12.6,15.2,12.6c4.8,0,10.6-2.2,13.9-5.1v6.8c-3,2.6-8.8,4.4-13.9,4.4
			c-11.8,0-20.4-8.7-20.4-20.7c0-12,10-20.7,23.8-20.7c9,0,15.6,6.1,15.6,14.6v8.2H2150.6z M2173.6,38.8c3.1-0.2,5.4-2.2,5.4-4.8
			c0-3.7-4-6.5-9.5-6.5c-10.1,0-17.7,5.2-18.9,12.6L2173.6,38.8z"/>
		<path class="st1" d="M2215.8,61.2l2-2c3.3-3.3,5.8-9.9,5.8-15.6c0-8.8-4.3-15.3-10.2-15.3c-5.9,0-10.2,6.5-10.2,15.3
			c0,5.7,2.4,12.3,5.8,15.6l2,2v0.7h-20.4v-0.7l8.2-4.8V29.2l-8.2-6.1v-0.7h12.9v6.8h0.7c1.8-4.6,6.5-7.8,11.2-7.8
			c7.3,0,12.6,6.5,12.6,15.3v19.7l8.2,4.8v0.7h-20.4V61.2z"/>
		<path class="st1" d="M2316.7,57.1l14.3,4.1v0.7h-44.9v-0.7l17.7-5.1V28.2l-10.9-5.1v-0.7h18.4l-1.4,6.1c-1,4.5-1.7,11.1-1.7,15.6
			C2308.2,50.3,2311.6,55.7,2316.7,57.1z M2303.8,5.1c7.9,0,13.6,2,13.6,4.8s-5.7,4.8-13.6,4.8s-13.6-2-13.6-4.8
			S2295.9,5.1,2303.8,5.1z"/>
		<path class="st1" d="M2358.6,61.2l2-2c3.3-3.3,5.8-9.9,5.8-15.6c0-8.8-4.3-15.3-10.2-15.3c-5.9,0-10.2,6.5-10.2,15.3
			c0,5.7,2.4,12.3,5.8,15.6l2,2v0.7h-20.4v-0.7l8.2-4.8V29.2l-8.2-6.1v-0.7h12.9v6.8h0.7c1.8-4.6,6.5-7.8,11.2-7.8
			c7.3,0,12.6,6.5,12.6,15.3v19.7l8.2,4.8v0.7h-20.4V61.2z"/>
		<path class="st1" d="M2470.8,49.3v7.1c-3.9,3.7-10.7,6.5-16.3,6.5c-8.7,0-15-6.1-15-14.6V27.9h-11.9v-0.7l20.7-12.9v8.2h22.4v5.4
			h-20.4c-2.4,0-4.1,1.7-4.1,4.1c0,7.3-2.4,10.7-2.4,16.3c0,4.9,4.4,8.5,10.5,8.5C2459.3,56.8,2466.1,53.7,2470.8,49.3z"/>
		<path class="st1" d="M2507.1,57.1l14.3,4.1v0.7h-44.9v-0.7l17.7-5.1V28.2l-10.9-5.1v-0.7h18.4l-1.4,6.1c-1,4.5-1.7,11.1-1.7,15.6
			C2498.6,50.3,2502,55.7,2507.1,57.1z M2494.2,5.1c7.9,0,13.6,2,13.6,4.8s-5.7,4.8-13.6,4.8s-13.6-2-13.6-4.8
			S2486.3,5.1,2494.2,5.1z"/>
		<path class="st1" d="M2554.7,58.1c1.6-3.6,2.7-9.8,2.7-14.6c0-8.5-1.8-14.6-4.4-14.6s-4.4,6.1-4.4,14.6c0,5.1,0.5,11.3,1.4,14.6
			l0.7,3.1v0.7h-8.2v-0.7l0.7-3.1c0.8-3.1,1.4-9.2,1.4-14.6c0-8.5-1.8-14.6-4.4-14.6c-2.6,0-4.4,6.1-4.4,14.6
			c0,4.9,1.2,11.1,2.7,14.6l1.4,3.1v0.7h-16v-0.7l7.8-4.8V29.2l-6.8-6.1v-0.7h10.2v6.1h0.7c1-4.1,3.9-7.1,6.8-7.1
			c2.6,0,4.8,3,5.3,7.1h0.7c1.4-4.1,4.3-7.1,6.9-7.1c3.5,0,6.1,5,6.1,11.9v23.1l7.8,4.8v0.7h-16v-0.7L2554.7,58.1z"/>
		<path class="st1" d="M2579,44.2c1,7.4,7.1,12.6,15.2,12.6c4.8,0,10.6-2.2,13.9-5.1v6.8c-3,2.6-8.8,4.4-13.9,4.4
			c-11.8,0-20.4-8.7-20.4-20.7c0-12,10-20.7,23.8-20.7c9,0,15.6,6.1,15.6,14.6v8.2H2579z M2602,38.8c3.1-0.2,5.4-2.2,5.4-4.8
			c0-3.7-4-6.5-9.5-6.5c-10.1,0-17.7,5.2-18.9,12.6L2602,38.8z"/>
		<path class="st1" d="M2638.4,53.4c7.9,0,13.6,2,13.6,4.8c0,2.8-5.7,4.8-13.6,4.8c-7.9,0-13.6-2-13.6-4.8
			C2624.8,55.4,2630.5,53.4,2638.4,53.4z"/>
	</g>
</g>
</svg>
