<?xml version="1.0" encoding="utf-8"?>
<!-- Generator: Adobe Illustrator 25.4.1, SVG Export Plug-In . SVG Version: 6.00 Build 0)  -->
<svg version="1.1" id="Layer_1" xmlns="http://www.w3.org/2000/svg" xmlns:xlink="http://www.w3.org/1999/xlink" x="0px" y="0px"
	 viewBox="0 0 2725 78" style="enable-background:new 0 0 2725 78;" xml:space="preserve">
<style type="text/css">
	.st0{fill:#FFFFFF;}
</style>
<g id="Layer_2_00000082327001397313722260000015424002618713803138_">
</g>
<path class="st0" d="M1.4,6.8V6.1h42.2v6.1h-28v16.3c0,1,0.7,1.7,1.7,1.7L38,29.5v6.1L17.3,35c-1,0-1.7,0.7-1.7,1.7v19.4l8.8,5.1
	v0.7h-23v-0.7l8.8-5.1V11.9L1.4,6.8z"/>
<path class="st0" d="M63.1,33.3c5.2-6.3,15.8-10.9,25.2-10.9v7.5h-4.1c-12.8,0-22.1,6.3-22.1,15c0,5.7,4.7,11.4,11.2,13.6l8.2,2.7
	v0.7h-34v-0.7l10.2-4.8V30.6l-6.8-7.5v-0.7h11.6v10.9H63.1z"/>
<path class="st0" d="M137.1,42.2c0,12-8.6,20.7-20.4,20.7s-20.4-8.7-20.4-20.7s8.6-20.7,20.4-20.7C128.5,21.4,137.1,30.1,137.1,42.2
	z M101.4,42.2c0,8.5,6.5,14.6,15.3,14.6S132,50.7,132,42.2s-6.5-14.6-15.3-14.6C107.9,27.5,101.4,33.7,101.4,42.2z"/>
<path class="st0" d="M145.4,61.9l25.5-33.7h-25.2v-5.8h35.7l-25.5,33.7h28.2v5.8H145.4z"/>
<path class="st0" d="M195.3,44.2c1,7.4,7.1,12.6,15.2,12.6c4.8,0,10.6-2.2,13.9-5.1v6.8c-3,2.6-8.8,4.4-13.9,4.4
	c-11.8,0-20.4-8.7-20.4-20.7s10-20.7,23.8-20.7c9,0,15.6,6.1,15.6,14.6v8.2h-34.2V44.2z M218.3,38.8c3.1-0.2,5.4-2.2,5.4-4.8
	c0-3.7-4-6.5-9.5-6.5c-10.1,0-17.7,5.2-18.9,12.6L218.3,38.8z"/>
<path class="st0" d="M263.4,61.2l2-2c3.3-3.3,5.8-9.9,5.8-15.6c0-8.8-4.3-15.3-10.2-15.3c-5.9,0-10.2,6.5-10.2,15.3
	c0,5.7,2.4,12.3,5.8,15.6l2,2v0.7h-20.4v-0.7l8.2-4.8V29.2l-8.2-6.1v-0.7h12.9v6.8h0.7c1.8-4.6,6.5-7.8,11.2-7.8
	c7.3,0,12.6,6.5,12.6,15.3v19.7l8.2,4.8v0.7h-20.4V61.2z"/>
<path class="st0" d="M378.7,61.9h-40.8v-0.7l17.7-5.1V11.9l-17.7-5.1V6.1h40.8v0.7L361,11.9v44.2l17.7,5.1V61.9z"/>
<path class="st0" d="M388.2,32c0,8.2,34.3,6.5,34.3,20.1c0,6.3-8.6,10.9-20.4,10.9c-6.2,0-14.1-1.7-19-4.1v-7.1
	c4.9,2.9,13.2,5.1,19.7,5.1c8.5,0,14.6-2,14.6-4.8c0-8.2-34.3-6.5-34.3-20.1c0-6.1,7.4-10.5,17.7-10.5c5.3,0,12.2,1.3,16.3,3.1v6.8
	c-3.8-2.2-10.9-3.7-17-3.7C393.2,27.5,388.2,29.4,388.2,32z"/>
<path class="st0" d="M457.6,58.5l9.5,2.7v0.7h-43.5v-0.7l18.4-5.1V11.9l-12.2-5.1V6.1h19.7l-1.4,10.2c-1,7.6-1.7,18.3-1.7,25.5
	C446.3,49.6,451,56.6,457.6,58.5z"/>
<path class="st0" d="M501.6,52.4h-0.7c-4.5,6.1-12.6,10.5-19.4,10.5c-6.3,0-10.9-4.4-10.9-10.5c0-9.9,11.2-17,26.5-17
	c8.2,0,4.7-7.8-7.5-7.8c-5,0-11.4,1.3-15,3.1v-6.8c2.9-1.4,8.2-2.4,12.6-2.4c11,0,19,5.8,19,13.9v18.4l6.8,7.5V62h-12.6L501.6,52.4z
	 M497.2,39.8c-12,0-20.7,5.3-20.7,12.6c0,2.6,2.2,4.4,5.1,4.4c6.5,0,14.2-3.7,18.4-8.8C503.7,43.2,502.6,39.8,497.2,39.8z"/>
<path class="st0" d="M545,61.2l2-2c3.3-3.3,5.8-9.9,5.8-15.6c0-8.8-4.3-15.3-10.2-15.3s-10.2,6.5-10.2,15.3c0,5.7,2.4,12.3,5.8,15.6
	l2,2v0.7h-20.4v-0.7l8.2-4.8V29.2l-8.2-6.1v-0.7h12.9v6.8h0.7c1.8-4.6,6.5-7.8,11.2-7.8c7.3,0,12.6,6.5,12.6,15.3v19.7l8.2,4.8v0.7
	H545L545,61.2L545,61.2z"/>
<path class="st0" d="M572.3,42.2c0-12,7-20.7,16.7-20.7c3.9,0,8.8,2.7,11.6,6.5c1.2,1.6,2.1,1.2,2-1l-0.7-15.3l-9.5-4.8V6.1h15v49
	l8.2,6.1v0.7h-12.9v-7.8H602c-2.3,5.1-7.8,8.8-12.9,8.8C579.3,62.9,572.3,54.2,572.3,42.2z M577.4,42.2c0,8.5,4.8,14.6,11.6,14.6
	c5.4,0,11-4.7,13.3-11.2c0.9-2.6,0.9-6.1,0-8.4c-2.2-5.6-7.8-9.7-13.3-9.7C582.2,27.5,577.4,33.7,577.4,42.2z"/>
<path class="st0" d="M704.5,57.1c-2,0-4.1,5.8-12.2,5.8c-9.9,0-17-8.7-17-20.7s7.3-20.7,17.3-20.7c5.4,0,10.9,3.7,12.9,8.8h0.7v-7.8
	h11.6v0.7l-6.8,7.5v28.2c0,11-8.2,19-19.4,19c-4.1,0-8.6-1.4-10.9-3.4v-6.8c2.7,2.4,7.2,4.1,10.9,4.1c8.5,0,14.6-5.4,14.6-12.9
	C706.2,57.9,705.5,57.1,704.5,57.1z M705.9,47.1c0.8-2.3,0.8-5.8,0-8.4c-2.2-6.5-7.8-11.2-13.3-11.2c-7.1,0-12.2,6.1-12.2,14.6
	s5,14.6,11.9,14.6C698,56.8,703.7,52.7,705.9,47.1z"/>
<path class="st0" d="M755.1,52.4h-0.7c-4.5,6.1-12.6,10.5-19.4,10.5c-6.3,0-10.9-4.4-10.9-10.5c0-9.9,11.2-17,26.5-17
	c8.2,0,4.7-7.8-7.5-7.8c-5,0-11.4,1.3-15,3.1v-6.8c2.9-1.4,8.2-2.4,12.6-2.4c11,0,19,5.8,19,13.9v18.4l6.8,7.5V62h-12.6L755.1,52.4z
	 M750.7,39.8c-12,0-20.7,5.3-20.7,12.6c0,2.6,2.2,4.4,5.1,4.4c6.5,0,14.2-3.7,18.4-8.8C757.2,43.2,756.1,39.8,750.7,39.8z"/>
<path class="st0" d="M811.4,49.3v7.1c-3.9,3.7-10.7,6.5-16.3,6.5c-8.7,0-15-6.1-15-14.6V27.9h-11.9v-0.7l20.7-12.9v8.2h22.4v5.4
	h-20.4c-2.4,0-4.1,1.7-4.1,4.1c0,7.3-2.4,10.7-2.4,16.3c0,4.9,4.4,8.5,10.5,8.5C799.9,56.8,806.7,53.7,811.4,49.3z"/>
<path class="st0" d="M843,61.2l2-2c3.3-3.3,5.8-9.9,5.8-15.6c0-8.8-4.3-15.3-10.2-15.3s-10.2,6.5-10.2,15.3c0,5.7,2.4,12.3,5.8,15.6
	l2,2v0.7h-20.4v-0.7l8.2-4.8V12.9l-8.2-6.1V6.1h13.6l-0.7,23.1h0.7c1.8-4.6,6.5-7.8,11.2-7.8c7.3,0,12.6,6.5,12.6,15.3v19.7l8.2,4.8
	v0.7H843L843,61.2L843,61.2z"/>
<path class="st0" d="M872.3,44.2c1,7.4,7.1,12.6,15.2,12.6c4.8,0,10.6-2.2,13.9-5.1v6.8c-3,2.6-8.8,4.4-13.9,4.4
	c-11.8,0-20.4-8.7-20.4-20.7s10-20.7,23.8-20.7c9,0,15.6,6.1,15.6,14.6v8.2h-34.2V44.2z M895.3,38.8c3.1-0.2,5.4-2.2,5.4-4.8
	c0-3.7-4-6.5-9.5-6.5c-10.1,0-17.7,5.2-18.9,12.6L895.3,38.8z"/>
<path class="st0" d="M927.9,33.3c5.2-6.3,15.8-10.9,25.2-10.9v7.5H949c-12.8,0-22.1,6.3-22.1,15c0,5.7,4.7,11.4,11.2,13.6l8.2,2.7
	v0.7h-34v-0.7l10.2-4.8V30.6l-6.8-7.5v-0.7h11.6v10.9H927.9z"/>
<path class="st0" d="M965.8,32c0,8.2,34.3,6.5,34.3,20.1c0,6.3-8.6,10.9-20.4,10.9c-6.2,0-14.1-1.7-19-4.1v-7.1
	c4.9,2.9,13.2,5.1,19.7,5.1c8.5,0,14.6-2,14.6-4.8c0-8.2-34.3-6.5-34.3-20.1c0-6.1,7.4-10.5,17.7-10.5c5.3,0,12.2,1.3,16.3,3.1v6.8
	c-3.8-2.2-10.9-3.7-17-3.7C970.8,27.5,965.8,29.4,965.8,32z"/>
<path class="st0" d="M1090,57.1l14,4.1v0.7h-44.6v-0.7l17.7-5.1V28.2l-10.9-5.1v-0.7h18.4l-1.4,6.1c-1,4.5-1.7,11.1-1.7,15.6
	C1081.5,50.3,1084.9,55.7,1090,57.1z M1077,5.1c7.9,0,13.6,2,13.6,4.8s-5.7,4.8-13.6,4.8s-13.6-2-13.6-4.8S1069.1,5.1,1077,5.1z"/>
<path class="st0" d="M1134.8,58.1c1.6-3.6,2.7-9.8,2.7-14.6c0-8.5-1.8-14.6-4.4-14.6s-4.4,6.1-4.4,14.6c0,5.1,0.5,11.3,1.4,14.6
	l0.7,3.1v0.7h-8.2v-0.7l0.7-3.1c0.8-3.1,1.4-9.2,1.4-14.6c0-8.5-1.8-14.6-4.4-14.6s-4.4,6.1-4.4,14.6c0,4.9,1.2,11.1,2.7,14.6
	l1.4,3.1v0.7h-16v-0.7l7.8-4.8V29.2l-6.8-6.1v-0.7h10.2v6.1h0.7c1-4.1,3.9-7.1,6.8-7.1c2.6,0,4.8,3,5.3,7.1h0.7
	c1.4-4.1,4.3-7.1,6.9-7.1c3.5,0,6.1,5,6.1,11.9v23.1l7.8,4.8v0.7h-16v-0.7L1134.8,58.1z"/>
<path class="st0" d="M1197.4,42.2c0,12-7,20.7-16.7,20.7c-3.7,0-8.6-2.4-11.6-5.8c-1.2-1.4-2-1-2,1v13.3l9.2,4.8v0.7h-23.1v-0.7
	l9.2-4.8V29.2l-8.2-6.1v-0.7h12.9v8.2h0.7c2.4-5.3,7.8-9.2,12.9-9.2C1190.4,21.4,1197.4,30.1,1197.4,42.2z M1192.3,42.2
	c0-8.5-4.8-14.6-11.6-14.6c-5.4,0-11,4.7-13.3,11.2c-0.9,2.6-0.9,6.1,0,8.4c2.2,5.6,7.8,9.7,13.3,9.7
	C1187.5,56.8,1192.3,50.7,1192.3,42.2z"/>
<path class="st0" d="M1218.5,33.3c5.2-6.3,15.8-10.9,25.2-10.9v7.5h-4.1c-12.8,0-22.1,6.3-22.1,15c0,5.7,4.7,11.4,11.2,13.6l8.2,2.7
	v0.7h-34v-0.7l10.2-4.8V30.6l-6.8-7.5v-0.7h11.6v10.9H1218.5z"/>
<path class="st0" d="M1254.1,44.2c1,7.4,7.1,12.6,15.2,12.6c4.8,0,10.6-2.2,13.9-5.1v6.8c-3,2.6-8.8,4.4-13.9,4.4
	c-11.8,0-20.4-8.7-20.4-20.7s10-20.7,23.8-20.7c9,0,15.6,6.1,15.6,14.6v8.2h-34.2V44.2z M1277.1,38.8c3.1-0.2,5.4-2.2,5.4-4.8
	c0-3.7-4-6.5-9.5-6.5c-10.1,0-17.7,5.2-18.9,12.6L1277.1,38.8z"/>
<path class="st0" d="M1301.2,32c0,8.2,34.3,6.5,34.3,20.1c0,6.3-8.6,10.9-20.4,10.9c-6.2,0-14.1-1.7-19-4.1v-7.1
	c4.9,2.9,13.2,5.1,19.7,5.1c8.5,0,14.6-2,14.6-4.8c0-8.2-34.3-6.5-34.3-20.1c0-6.1,7.4-10.5,17.7-10.5c5.3,0,12.2,1.3,16.3,3.1v6.8
	c-3.8-2.2-10.9-3.7-17-3.7C1306.2,27.5,1301.2,29.4,1301.2,32z"/>
<path class="st0" d="M1345.8,32c0,8.2,34.3,6.5,34.3,20.1c0,6.3-8.6,10.9-20.4,10.9c-6.2,0-14.1-1.7-19-4.1v-7.1
	c4.9,2.9,13.2,5.1,19.7,5.1c8.5,0,14.6-2,14.6-4.8c0-8.2-34.3-6.5-34.3-20.1c0-6.1,7.4-10.5,17.7-10.5c5.3,0,12.2,1.3,16.3,3.1v6.8
	c-3.8-2.2-10.9-3.7-17-3.7C1350.8,27.5,1345.8,29.4,1345.8,32z"/>
<path class="st0" d="M1412,57.1l14.3,4.1v0.7h-44.9v-0.7l17.7-5.1V28.2l-10.9-5.1v-0.7h18.4l-1.4,6.1c-1,4.5-1.7,11.1-1.7,15.6
	C1403.5,50.3,1406.9,55.7,1412,57.1z M1399,5.1c7.9,0,13.6,2,13.6,4.8s-5.7,4.8-13.6,4.8s-13.6-2-13.6-4.8S1391.1,5.1,1399,5.1z"/>
<path class="st0" d="M1441.4,62.9h-0.7l-22.8-39.8v-0.7h9.2l2.7,9.9c2.5,9.2,7.3,16,11.2,16c3.9,0,8.7-6.7,11.2-16l2.7-9.9h9.2v0.7
	L1441.4,62.9z"/>
<path class="st0" d="M1472.3,44.2c1,7.4,7.1,12.6,15.2,12.6c4.8,0,10.6-2.2,13.9-5.1v6.8c-3,2.6-8.8,4.4-13.9,4.4
	c-11.8,0-20.4-8.7-20.4-20.7s10-20.7,23.8-20.7c9,0,15.6,6.1,15.6,14.6v8.2h-34.2V44.2z M1495.3,38.8c3.1-0.2,5.4-2.2,5.4-4.8
	c0-3.7-4-6.5-9.5-6.5c-10.1,0-17.7,5.2-18.9,12.6L1495.3,38.8z"/>
<path class="st0" d="M1624.1,58.5l5.1,2.7v0.7h-21.7v-0.7l6.8-4.8V33h-28.6c-1.6,0-2.8,1.3-2.7,3.1l0.7,13.3
	c0.2,4.4,2.9,8.8,6.5,10.5l2.7,1.4V62h-22.1v-0.7l8.2-4.8V33h-8.2v-0.7l5.4-3.4c1.6-1,2.7-3.3,2.7-5.4v-3.1
	c0-8.8,5.2-15.3,12.2-15.3c1,0,2.4,0.3,3.4,0.7v9.5c-1-0.8-2.7-1.4-4.1-1.4c-4.6,0-7.8,3.1-7.8,7.5c0,3.7,2.4,6.5,5.8,6.5h33
	l-1.4,5.4c-1,4.6-1.7,10-1.7,12.9C1618.3,51.5,1620.8,56.6,1624.1,58.5z M1612.2,12.6c0-4.4,3.4-7.5,8.2-7.5s8.2,3.1,8.2,7.5
	s-3.4,7.5-8.2,7.5S1612.2,16.9,1612.2,12.6z"/>
<path class="st0" d="M1660.7,61.2l2-2c3.3-3.3,5.8-9.9,5.8-15.6c0-8.8-4.3-15.3-10.2-15.3c-5.9,0-10.2,6.5-10.2,15.3
	c0,5.7,2.4,12.3,5.8,15.6l2,2v0.7h-20.4v-0.7l8.2-4.8V29.2l-8.2-6.1v-0.7h12.9v6.8h0.7c1.8-4.6,6.5-7.8,11.2-7.8
	c7.3,0,12.6,6.5,12.6,15.3v19.7l8.2,4.8v0.7h-20.4V61.2z"/>
<path class="st0" d="M1683.9,42.2c0-12,7-20.7,16.7-20.7c3.9,0,8.8,2.7,11.6,6.5c1.2,1.6,2.1,1.2,2-1l-0.7-15.3l-9.5-4.8V6.1h15v49
	l8.2,6.1v0.7h-12.9v-7.8h-0.7c-2.3,5.1-7.8,8.8-12.9,8.8C1690.9,62.9,1683.9,54.2,1683.9,42.2z M1689,42.2c0,8.5,4.8,14.6,11.6,14.6
	c5.4,0,11-4.7,13.3-11.2c0.9-2.6,0.9-6.1,0-8.4c-2.2-5.6-7.8-9.7-13.3-9.7C1693.8,27.5,1689,33.7,1689,42.2z"/>
<path class="st0" d="M1759.3,57.1l14.3,4.1v0.7h-46.4v-0.7l19.2-5.1V28.2l-10.9-5.1v-0.7h18.4l-1.4,6.1c-1,4.5-1.7,11.1-1.7,15.6
	C1750.8,50.3,1754.2,55.7,1759.3,57.1z M1746.3,5.1c7.9,0,13.6,2,13.6,4.8s-5.7,4.8-13.6,4.8s-13.6-2-13.6-4.8
	S1738.4,5.1,1746.3,5.1z"/>
<path class="st0" d="M1797,61.2l2-2c3.3-3.3,5.8-9.9,5.8-15.6c0-8.8-4.3-15.3-10.2-15.3c-5.9,0-10.2,6.5-10.2,15.3
	c0,5.7,2.4,12.3,5.8,15.6l2,2v0.7h-20.4v-0.7l8.2-4.8V29.2l-8.2-6.1v-0.7h12.9v6.8h0.7c1.8-4.6,6.5-7.8,11.2-7.8
	c7.3,0,12.6,6.5,12.6,15.3v19.7l8.2,4.8v0.7H1797V61.2z"/>
<path class="st0" d="M1849,57.1c-2,0-4.1,5.8-12.2,5.8c-9.9,0-17-8.7-17-20.7s7.3-20.7,17.3-20.7c5.4,0,10.9,3.7,12.9,8.8h0.7v-7.8
	h11.6v0.7l-6.8,7.5v28.2c0,11-8.2,19-19.4,19c-4.1,0-8.6-1.4-10.9-3.4v-6.8c2.7,2.4,7.2,4.1,10.9,4.1c8.5,0,14.6-5.4,14.6-12.9
	C1850.7,57.9,1850,57.1,1849,57.1z M1850.4,47.1c0.8-2.3,0.8-5.8,0-8.4c-2.2-6.5-7.8-11.2-13.3-11.2c-7.1,0-12.2,6.1-12.2,14.6
	s5,14.6,11.9,14.6C1842.5,56.8,1848.2,52.7,1850.4,47.1z"/>
<path class="st0" d="M1871.9,32c0,8.2,34.3,6.5,34.3,20.1c0,6.3-8.6,10.9-20.4,10.9c-6.2,0-14.1-1.7-19-4.1v-7.1
	c4.9,2.9,13.2,5.1,19.7,5.1c8.5,0,14.6-2,14.6-4.8c0-8.2-34.3-6.5-34.3-20.1c0-6.1,7.4-10.5,17.7-10.5c5.3,0,12.2,1.3,16.3,3.1v6.8
	c-3.8-2.2-10.9-3.7-17-3.7C1876.9,27.5,1871.9,29.4,1871.9,32z"/>
<path class="st0" d="M1980.2,19c0,2,1.4,3.4,3.4,3.4h21.8v5.4h-21.8c-2,0-3.5,1.4-3.4,3.4l0.7,14.6c0.3,5.4,4.1,10.4,9.2,11.9
	l11.2,3.4v0.7h-38.1v-0.7l12.2-4.8V27.9h-12.2v-0.7l8.8-3.4c2-0.7,3.4-2.7,3.4-4.8v-0.7c0-7.7,8.2-13.3,19.4-13.3
	c3.9,0,8.3,0.7,10.5,1.7v7.1c-2.7-1.4-8-2.4-12.6-2.4C1985.5,11.6,1980.2,14.7,1980.2,19z"/>
<path class="st0" d="M2026.7,33.3c5.2-6.3,15.8-10.9,25.2-10.9v7.5h-4.1c-12.8,0-22.1,6.3-22.1,15c0,5.7,4.7,11.4,11.2,13.6l8.2,2.7
	v0.7h-34v-0.7l10.2-4.8V30.6l-6.8-7.5v-0.7h11.6v10.9H2026.7z"/>
<path class="st0" d="M2098.7,42.2c0,12-8.6,20.7-20.4,20.7c-11.8,0-20.4-8.7-20.4-20.7s8.6-20.7,20.4-20.7
	C2090.1,21.4,2098.7,30.1,2098.7,42.2z M2063,42.2c0,8.5,6.5,14.6,15.3,14.6s15.3-6.1,15.3-14.6s-6.5-14.6-15.3-14.6
	C2069.5,27.5,2063,33.7,2063,42.2z"/>
<path class="st0" d="M2104.8,61.9l25.5-33.7h-25.2v-5.8h35.7l-25.5,33.7h28.2v5.8H2104.8z"/>
<path class="st0" d="M2153.9,44.2c1,7.4,7.1,12.6,15.2,12.6c4.8,0,10.6-2.2,13.9-5.1v6.8c-3,2.6-8.8,4.4-13.9,4.4
	c-11.8,0-20.4-8.7-20.4-20.7s10-20.7,23.8-20.7c9,0,15.6,6.1,15.6,14.6v8.2h-34.2V44.2z M2176.9,38.8c3.1-0.2,5.4-2.2,5.4-4.8
	c0-3.7-4-6.5-9.5-6.5c-10.1,0-17.7,5.2-18.9,12.6L2176.9,38.8z"/>
<path class="st0" d="M2220,61.2l2-2c3.3-3.3,5.8-9.9,5.8-15.6c0-8.8-4.3-15.3-10.2-15.3s-10.2,6.5-10.2,15.3
	c0,5.7,2.4,12.3,5.8,15.6l2,2v0.7h-20.4v-0.7l8.2-4.8V29.2l-8.2-6.1v-0.7h12.9v6.8h0.7c1.8-4.6,6.5-7.8,11.2-7.8
	c7.3,0,12.6,6.5,12.6,15.3v19.7l8.2,4.8v0.7H2220L2220,61.2L2220,61.2z"/>
<path class="st0" d="M2318.7,57.1l14.9,4.1v0.7h-45.5v-0.7l17.7-5.1V28.2l-10.9-5.1v-0.7h18.4l-1.4,6.1c-1,4.5-1.7,11.1-1.7,15.6
	C2310.2,50.3,2313.6,55.7,2318.7,57.1z M2305.8,5.1c7.9,0,13.6,2,13.6,4.8s-5.7,4.8-13.6,4.8s-13.6-2-13.6-4.8
	S2297.9,5.1,2305.8,5.1z"/>
<path class="st0" d="M2357.8,61.2l2-2c3.3-3.3,5.8-9.9,5.8-15.6c0-8.8-4.3-15.3-10.2-15.3s-10.2,6.5-10.2,15.3
	c0,5.7,2.4,12.3,5.8,15.6l2,2v0.7h-20.4v-0.7l8.2-4.8V29.2l-8.2-6.1v-0.7h12.9v6.8h0.7c1.8-4.6,6.5-7.8,11.2-7.8
	c7.3,0,12.6,6.5,12.6,15.3v19.7l8.2,4.8v0.7h-20.4L2357.8,61.2L2357.8,61.2z"/>
<path class="st0" d="M2467.8,49.3v7.1c-3.9,3.7-10.7,6.5-16.3,6.5c-8.7,0-15-6.1-15-14.6V27.9h-11.9v-0.7l20.7-12.9v8.2h22.4v5.4
	h-20.4c-2.4,0-4.1,1.7-4.1,4.1c0,7.3-2.4,10.7-2.4,16.3c0,4.9,4.4,8.5,10.5,8.5C2456.3,56.8,2463.1,53.7,2467.8,49.3z"/>
<path class="st0" d="M2506.3,57.1l15,4.1v0.7h-45.6v-0.7l17.7-5.1V28.2l-10.9-5.1v-0.7h18.4l-1.4,6.1c-1,4.5-1.7,11.1-1.7,15.6
	C2497.8,50.3,2501.2,55.7,2506.3,57.1z M2493.4,5.1c7.9,0,13.6,2,13.6,4.8s-5.7,4.8-13.6,4.8s-13.6-2-13.6-4.8
	S2485.5,5.1,2493.4,5.1z"/>
<path class="st0" d="M2551.4,58.1c1.6-3.6,2.7-9.8,2.7-14.6c0-8.5-1.8-14.6-4.4-14.6s-4.4,6.1-4.4,14.6c0,5.1,0.5,11.3,1.4,14.6
	l0.7,3.1v0.7h-8.2v-0.7l0.7-3.1c0.8-3.1,1.4-9.2,1.4-14.6c0-8.5-1.8-14.6-4.4-14.6c-2.6,0-4.4,6.1-4.4,14.6c0,4.9,1.2,11.1,2.7,14.6
	l1.4,3.1v0.7h-16v-0.7l7.8-4.8V29.2l-6.8-6.1v-0.7h10.2v6.1h0.7c1-4.1,3.9-7.1,6.8-7.1c2.6,0,4.8,3,5.3,7.1h0.7
	c1.4-4.1,4.3-7.1,6.9-7.1c3.5,0,6.1,5,6.1,11.9v23.1l7.8,4.8v0.7h-16v-0.7L2551.4,58.1z"/>
<path class="st0" d="M2575.6,44.2c1,7.4,7.1,12.6,15.2,12.6c4.8,0,10.6-2.2,13.9-5.1v6.8c-3,2.6-8.8,4.4-13.9,4.4
	c-11.8,0-20.4-8.7-20.4-20.7s10-20.7,23.8-20.7c9,0,15.6,6.1,15.6,14.6v8.2h-34.2V44.2z M2598.6,38.8c3.1-0.2,5.4-2.2,5.4-4.8
	c0-3.7-4-6.5-9.5-6.5c-10.1,0-17.7,5.2-18.9,12.6L2598.6,38.8z"/>
<path class="st0" d="M2643,53.4c7.9,0,13.6,2,13.6,4.8s-5.7,4.8-13.6,4.8c-7.9,0-13.6-2-13.6-4.8C2629.4,55.4,2635.1,53.4,2643,53.4
	z"/>
</svg>
