<?xml version="1.0" encoding="utf-8"?>
<!-- Generator: Adobe Illustrator 25.4.1, SVG Export Plug-In . SVG Version: 6.00 Build 0)  -->
<svg version="1.1" id="Layer_1" xmlns="http://www.w3.org/2000/svg" xmlns:xlink="http://www.w3.org/1999/xlink" x="0px" y="0px"
	 viewBox="0 0 50 50" style="enable-background:new 0 0 50 50;" xml:space="preserve">
<style type="text/css">
	.st0{fill:#FFFFFF;}
</style>
<g>
	<path class="st0" d="M25,15c8.3,0,15.6,3.9,20.3,10c-4.7,6.1-12,10-20.3,10c-8.3,0-15.6-3.9-20.3-10C9.4,18.9,16.7,15,25,15
		 M25,11.9c-9,0-17.3,4.1-22.8,11.2L0.8,25l1.5,1.9C7.7,34,16,38.1,25,38.1c9,0,17.2-4.1,22.8-11.2l1.5-1.9l-1.5-1.9
		C42.2,16,34,11.9,25,11.9L25,11.9z"/>
	<path class="st0" d="M32.1,25c0,3.9-3.2,7.1-7.1,7.1c-3.9,0-7.1-3.2-7.1-7.1c0-3.9,3.2-7.1,7.1-7.1C28.9,17.9,32.1,21.1,32.1,25"/>
</g>
</svg>
