<svg xmlns="http://www.w3.org/2000/svg" height="48" viewBox="0 96 960 960" width="48"><path d="M480.118 738Q556 738 609 684.882q53-53.117 53-129Q662 480 608.882 427q-53.117-53-129-53Q404 374 351 427.118q-53 53.117-53 129Q298 632 351.118 685q53.117 53 129 53Zm-.471-69Q433 669 400 635.647q-33-33.353-33-80T400.353 476q33.353-33 80-33T560 476.353q33 33.353 33 80T559.647 636q-33.353 33-80 33ZM480 871q-152 0-275.5-87T22 556q59-141 182.5-228T480 241q152 0 275.5 87T938 556q-59 141-182.5 228T480 871Zm0-315Zm-.169 242Q603 798 704.872 732.418 806.745 666.836 861 556q-54.255-110.836-155.959-176.418Q603.337 314 480.169 314 357 314 254.628 379.582 152.255 445.164 98 556q54.255 110.836 156.459 176.418Q356.663 798 479.831 798Z"/></svg>