<?xml version="1.0" encoding="utf-8"?>
<!-- Generator: Adobe Illustrator 25.4.1, SVG Export Plug-In . SVG Version: 6.00 Build 0)  -->
<svg version="1.1" id="Layer_1" xmlns="http://www.w3.org/2000/svg" xmlns:xlink="http://www.w3.org/1999/xlink" x="0px" y="0px"
	 viewBox="0 0 40 80" style="enable-background:new 0 0 40 80;" xml:space="preserve">
<g>
	<rect x="0.2" y="40" width="5.6" height="22.5"/>
	<rect x="11.5" width="5.6" height="80"/>
	<rect x="5.9" y="28.8" width="5.6" height="22.5"/>
	<rect x="17.2" width="2.8" height="57"/>
	<rect x="5.9" y="5.5" width="5.6" height="17.3"/>
	<rect x="34.1" y="40" transform="matrix(-1 4.476807e-11 -4.476807e-11 -1 73.8864 102.4602)" width="5.6" height="22.5"/>
	<rect x="22.8" y="0" transform="matrix(-1 4.509003e-11 -4.509003e-11 -1 51.2955 80)" width="5.6" height="80"/>
	<rect x="28.5" y="28.8" transform="matrix(-1 4.476807e-11 -4.476807e-11 -1 62.591 80)" width="5.6" height="22.5"/>
	<rect x="20" y="0" transform="matrix(-1 4.444610e-11 -4.444610e-11 -1 42.8239 56.9988)" width="2.8" height="57"/>
	<rect x="28.5" y="5.5" transform="matrix(-1 4.476807e-11 -4.476807e-11 -1 62.591 28.2692)" width="5.6" height="17.3"/>
</g>
</svg>
