<?xml version="1.0" encoding="utf-8"?>
<!-- Generator: Adobe Illustrator 25.4.1, SVG Export Plug-In . SVG Version: 6.00 Build 0)  -->
<svg version="1.1" id="Layer_1" xmlns="http://www.w3.org/2000/svg" xmlns:xlink="http://www.w3.org/1999/xlink" x="0px" y="0px"
	 viewBox="0 0 78 90" style="enable-background:new 0 0 78 90;" xml:space="preserve">
<style type="text/css">
	.st0{stroke:#000000;stroke-width:0.2835;stroke-miterlimit:10;}
	.st1{font-family:'FKRasterGroteskTrial-Blended';}
	.st2{font-size:16.2504px;}
</style>
<text transform="matrix(1 0 0 1 1.9356 65.3813)" class="st0 st1 st2">Jun</text>
<text transform="matrix(1 0 0 1 0.5816 87.8461)" class="st0 st1 st2">Oct</text>
<text transform="matrix(1 0 0 1 34.4649 65.3813)" class="st0 st1 st2">2021</text>
<text transform="matrix(1 0 0 1 34.4654 87.8461)" class="st0 st1 st2">2007</text>
<path d="M40.6,0C29.8,0,21,8.8,21,19.7h-6.6l8.7,8.7l8.7-8.7h-6.6c0-8.5,6.9-15.3,15.3-15.3s15.3,6.9,15.3,15.3S49.1,35,40.6,35
	c-3.3,0-6.4-1.1-8.9-2.8l-3.1,3.1c3.4,2.5,7.5,4.1,12,4.1c10.9,0,19.7-8.8,19.7-19.7S51.5,0,40.6,0"/>
</svg>
